# xmcd
#
# Track frame offsets:
#	150
#	17779
#	34550
#	52416
#	65755
#	83239
#	104172
#	120260
#	137370
#	155379
#
# Disc length: 2346 seconds
#
# Revision: 2
# Processed by: cddbd v1.5.2PL0 Copyright (c) Steve Scherf et al.
# Submitted via: dBpowerAMP V4.0
#
DISCID=8409280a
DTITLE=Gary Allan - Get Off On The Pain
DYEAR=2010
DGENRE=Country
TTITLE0=Get Off On The Pain
TTITLE1=I Think I've Had Enough
TTITLE2=Today
TTITLE3=That Ain't Gonna Fly
TTITLE4=Kiss Me When I'm Down
TTITLE5=We Fly By Night
TTITLE6=When You Give Yourself Away
TTITLE7=Along The Way
TTITLE8=She Gets Me
TTITLE9=No Regrets
EXTD=
EXTT0=
EXTT1=
EXTT2=
EXTT3=
EXTT4=
EXTT5=
EXTT6=
EXTT7=
EXTT8=
EXTT9=
PLAYORDER=
